<svg id="visual" viewBox="0 0 1920 1080" width="1920" height="1080" xmlns="http://www.w3.org/2000/svg" xmlns:xlink="http://www.w3.org/1999/xlink" version="1.1"><rect x="0" y="0" width="1920" height="1080" fill="#FFFFFF"></rect><defs><linearGradient id="grad1_0" x1="43.8%" y1="100%" x2="100%" y2="0%"><stop offset="14.444444444444446%" stop-color="#608ffc" stop-opacity="1"></stop><stop offset="85.55555555555554%" stop-color="#608ffc" stop-opacity="1"></stop></linearGradient></defs><defs><linearGradient id="grad1_1" x1="43.8%" y1="100%" x2="100%" y2="0%"><stop offset="14.444444444444446%" stop-color="#608ffc" stop-opacity="1"></stop><stop offset="85.55555555555554%" stop-color="#a0b2fe" stop-opacity="1"></stop></linearGradient></defs><defs><linearGradient id="grad1_2" x1="43.8%" y1="100%" x2="100%" y2="0%"><stop offset="14.444444444444446%" stop-color="#d2d8ff" stop-opacity="1"></stop><stop offset="85.55555555555554%" stop-color="#a0b2fe" stop-opacity="1"></stop></linearGradient></defs><defs><linearGradient id="grad1_3" x1="43.8%" y1="100%" x2="100%" y2="0%"><stop offset="14.444444444444446%" stop-color="#d2d8ff" stop-opacity="1"></stop><stop offset="85.55555555555554%" stop-color="#ffffff" stop-opacity="1"></stop></linearGradient></defs><defs><linearGradient id="grad2_0" x1="0%" y1="100%" x2="56.3%" y2="0%"><stop offset="14.444444444444446%" stop-color="#608ffc" stop-opacity="1"></stop><stop offset="85.55555555555554%" stop-color="#608ffc" stop-opacity="1"></stop></linearGradient></defs><defs><linearGradient id="grad2_1" x1="0%" y1="100%" x2="56.3%" y2="0%"><stop offset="14.444444444444446%" stop-color="#a0b2fe" stop-opacity="1"></stop><stop offset="85.55555555555554%" stop-color="#608ffc" stop-opacity="1"></stop></linearGradient></defs><defs><linearGradient id="grad2_2" x1="0%" y1="100%" x2="56.3%" y2="0%"><stop offset="14.444444444444446%" stop-color="#a0b2fe" stop-opacity="1"></stop><stop offset="85.55555555555554%" stop-color="#d2d8ff" stop-opacity="1"></stop></linearGradient></defs><defs><linearGradient id="grad2_3" x1="0%" y1="100%" x2="56.3%" y2="0%"><stop offset="14.444444444444446%" stop-color="#ffffff" stop-opacity="1"></stop><stop offset="85.55555555555554%" stop-color="#d2d8ff" stop-opacity="1"></stop></linearGradient></defs><g transform="translate(1920, 1080)"><path d="M-432 0C-424.3 -37.8 -416.7 -75.6 -400.9 -107.4C-385.1 -139.2 -361.1 -165.1 -347.3 -200.5C-333.4 -235.9 -329.6 -280.9 -305.5 -305.5C-281.4 -330 -236.9 -334.1 -202 -349.9C-167.1 -365.6 -141.6 -393 -109.5 -408.6C-77.4 -424.2 -38.7 -428.1 0 -432L0 0Z" fill="#e9ebff"></path><path d="M-324 0C-318.2 -28.3 -312.5 -56.7 -300.6 -80.6C-288.8 -104.4 -270.9 -123.8 -260.5 -150.4C-250.1 -176.9 -247.2 -210.7 -229.1 -229.1C-211 -247.5 -177.7 -250.6 -151.5 -262.4C-125.3 -274.2 -106.2 -294.7 -82.1 -306.4C-58 -318.2 -29 -321.1 0 -324L0 0Z" fill="#bac5ff"></path><path d="M-216 0C-212.2 -18.9 -208.3 -37.8 -200.4 -53.7C-192.5 -69.6 -180.6 -82.5 -173.6 -100.3C-166.7 -118 -164.8 -140.5 -152.7 -152.7C-140.7 -165 -118.5 -167.1 -101 -174.9C-83.5 -182.8 -70.8 -196.5 -54.7 -204.3C-38.7 -212.1 -19.3 -214.1 0 -216L0 0Z" fill="#83a0fd"></path><path d="M-108 0C-106.1 -9.4 -104.2 -18.9 -100.2 -26.9C-96.3 -34.8 -90.3 -41.3 -86.8 -50.1C-83.4 -59 -82.4 -70.2 -76.4 -76.4C-70.3 -82.5 -59.2 -83.5 -50.5 -87.5C-41.8 -91.4 -35.4 -98.2 -27.4 -102.1C-19.3 -106.1 -9.7 -107 0 -108L0 0Z" fill="#608ffc"></path></g><g transform="translate(0, 0)"><path d="M432 0C438.8 43.2 445.6 86.3 417.3 111.8C389 137.3 325.6 145.1 301.4 174C277.2 202.9 292.2 253.1 275.8 275.8C259.4 298.5 211.6 293.8 180 311.8C148.4 329.7 132.9 370.3 105.6 394.1C78.3 417.9 39.1 425 0 432L0 0Z" fill="#e9ebff"></path><path d="M324 0C329.1 32.4 334.2 64.8 313 83.9C291.7 103 244.2 108.8 226 130.5C207.9 152.2 219.1 189.8 206.8 206.8C194.5 223.9 158.7 220.4 135 233.8C111.3 247.3 99.7 277.7 79.2 295.6C58.7 313.4 29.4 318.7 0 324L0 0Z" fill="#bac5ff"></path><path d="M216 0C219.4 21.6 222.8 43.2 208.6 55.9C194.5 68.6 162.8 72.5 150.7 87C138.6 101.5 146.1 126.5 137.9 137.9C129.7 149.2 105.8 146.9 90 155.9C74.2 164.9 66.5 185.1 52.8 197C39.1 209 19.6 212.5 0 216L0 0Z" fill="#83a0fd"></path><path d="M108 0C109.7 10.8 111.4 21.6 104.3 28C97.2 34.3 81.4 36.3 75.3 43.5C69.3 50.7 73 63.3 68.9 68.9C64.8 74.6 52.9 73.5 45 77.9C37.1 82.4 33.2 92.6 26.4 98.5C19.6 104.5 9.8 106.2 0 108L0 0Z" fill="#608ffc"></path></g></svg>