<?xml version="1.0" encoding="utf-8"?>
<!-- Generator: Adobe Illustrator 26.1.0, SVG Export Plug-In . SVG Version: 6.00 Build 0)  -->
<svg version="1.1" id="a" xmlns="http://www.w3.org/2000/svg" xmlns:xlink="http://www.w3.org/1999/xlink" x="0px" y="0px"
	 viewBox="0 0 45.2 44.8" style="enable-background:new 0 0 45.2 44.8;" xml:space="preserve">
<style type="text/css">
	.st0{fill:#1D1E1C;stroke:#000000;stroke-width:0.5669;stroke-miterlimit:10;}
</style>
<path class="st0" d="M43.5,1.7c-1.8-1.9-4.9-1.9-6.7,0L18.5,20l-3,9.7l9.6-2.9l10.2-10.2c-0.1-0.6-0.3-1.2-0.5-1.7L24.3,25.4l-6.4,2
	l2-6.4L37.9,2.8c1.2-1.2,3.3-1.2,4.5,0C43,3.4,43.3,4.2,43.3,5S43,6.7,42.4,7.3l-6.1,6.1l0.1,0.2c0.4,1.1,0.6,2.2,0.6,3.3v17.1
	c0,5-4.1,9-9.1,9H10.9c-5,0-9.1-4.1-9.1-9V16.8c0-5,4.1-9,9.1-9h17.3l1.5-1.4l-0.6-0.1c-0.4,0-0.7-0.1-1.1-0.1H10.9
	C5,6.2,0.3,11,0.3,16.8v17.1c0,5.8,4.8,10.6,10.6,10.6H28c5.9,0,10.6-4.8,10.6-10.6V16.8c0-1-0.2-2.1-0.5-3.1l5.4-5.4
	C45.4,6.5,45.4,3.5,43.5,1.7z"/>
</svg>
