<?xml version="1.0" encoding="utf-8"?>
<!-- Generator: Adobe Illustrator 26.1.0, SVG Export Plug-In . SVG Version: 6.00 Build 0)  -->
<svg version="1.1" id="a" xmlns="http://www.w3.org/2000/svg" xmlns:xlink="http://www.w3.org/1999/xlink" x="0px" y="0px"
	 viewBox="0 0 45.8 46.7" style="enable-background:new 0 0 45.8 46.7;" xml:space="preserve">
<style type="text/css">
	.st0{fill:#1D1E1C;stroke:#000000;stroke-width:0.5669;stroke-miterlimit:10;}
</style>
<rect x="22.2" y="20" class="st0" width="1.6" height="16.9"/>
<rect x="31.4" y="20" class="st0" width="1.6" height="16.9"/>
<rect x="12.9" y="20" class="st0" width="1.6" height="16.9"/>
<path class="st0" d="M21.2,7.9V4.9c0-1.2,0.7-2.3,1.8-2.8c1.1,0.5,1.8,1.6,1.8,2.8v1.3h1.6V4.9c0-1.1-0.4-2.2-1.2-3H27
	c1.7,0,3,1.4,3,3v1.3h1.6V4.9c0-2.5-2.1-4.6-4.6-4.6h-8.2c-2.5,0-4.6,2.1-4.6,4.6v3.1H0.3v1.6h15.5V4.9c0-1.7,1.4-3,3.1-3h2
	c-0.8,0.8-1.2,1.9-1.2,3v4.6h25.9V7.9L21.2,7.9L21.2,7.9z"/>
<path class="st0" d="M3.8,11.3v1.6h36.8v23c0,5-4.1,9-9.1,9H14.4c-5,0-9.1-4.1-9.1-9V14.6H3.8v21.2c0,5.8,4.8,10.6,10.6,10.6h17.1
	c5.9,0,10.6-4.8,10.6-10.6V11.3H3.8z"/>
</svg>
