<?xml version="1.0" encoding="UTF-8"?><svg id="a" xmlns="http://www.w3.org/2000/svg" viewBox="0 0 45.25 46.12"><defs><style>.b{fill:#1d1d1b;}</style></defs><rect class="b" x="21.88" y="19.73" width="1.57" height="16.91"/><rect class="b" x="31.15" y="19.73" width="1.57" height="16.91"/><rect class="b" x="12.62" y="19.73" width="1.57" height="16.91"/><path class="b" d="M20.94,7.66v-3.05c0-1.2,.7-2.28,1.8-2.77,1.11,.49,1.83,1.57,1.83,2.77v1.29h1.57v-1.29c0-1.13-.42-2.21-1.18-3.05h1.76c1.68,0,3.05,1.37,3.05,3.05v1.29h1.57v-1.29c0-2.54-2.07-4.61-4.61-4.61h-8.17c-2.54,0-4.61,2.07-4.61,4.61v3.05H0v1.57H15.48V4.61c.01-1.68,1.38-3.05,3.06-3.05h2.01c-.75,.84-1.18,1.92-1.18,3.05v4.61h25.88v-1.57H20.94Z"/><path class="b" d="M3.5,10.98v1.57H40.27v22.96c0,4.99-4.06,9.05-9.05,9.05H14.11c-4.99,0-9.05-4.06-9.05-9.05V14.3h-1.57v21.21c0,5.85,4.76,10.61,10.61,10.61H31.22c5.85,0,10.61-4.76,10.61-10.61V10.98H3.5Z"/></svg>