<?xml version="1.0" encoding="UTF-8"?><svg id="a" xmlns="http://www.w3.org/2000/svg" viewBox="0 0 44.61 44.27"><defs><style>.b{fill:#1d1d1b;}</style></defs><path class="b" d="M43.22,1.39c-1.85-1.85-4.86-1.85-6.7,0L18.19,19.71l-2.97,9.67,9.56-2.9,10.24-10.2c-.13-.59-.3-1.16-.51-1.7l-10.49,10.49-6.44,1.95,1.96-6.44L37.62,2.49c1.2-1.2,3.29-1.2,4.49,0,.6,.6,.93,1.4,.93,2.24s-.33,1.65-.93,2.24l-6.06,6.06,.07,.17c.43,1.07,.64,2.19,.64,3.33v17.11c0,4.99-4.06,9.05-9.05,9.05H10.61c-4.99,0-9.05-4.06-9.05-9.05V16.55C1.57,11.56,5.63,7.5,10.61,7.5H27.93l1.46-1.45-.6-.06c-.36-.04-.72-.05-1.07-.05H10.61C4.76,5.93,0,10.69,0,16.55v17.11c0,5.85,4.76,10.61,10.61,10.61H27.72c5.85,0,10.61-4.76,10.61-10.61V16.55c0-1.05-.16-2.09-.47-3.1l5.36-5.36c1.85-1.85,1.85-4.86,0-6.7Z"/></svg>