<?xml version="1.0" encoding="UTF-8"?><svg id="a" xmlns="http://www.w3.org/2000/svg" viewBox="0 0 21.54 21.54"><defs><style>.b{stroke-linejoin:bevel;}.b,.c{fill:none;stroke-linecap:round;stroke-width:1px;}.b,.c,.d,.e{stroke:#1d1d1b;}.c,.d,.e{stroke-miterlimit:10;}.d{fill:#fff;}.e{fill:#ffe83e;}</style></defs><ellipse class="d" cx="10.77" cy="19.76" rx="3.6" ry="1.28"/><path class="e" d="M10.77,.5C6.6,.5,3.21,3.88,3.21,8.06c0,2.58,1.3,4.86,3.27,6.22v4.02c0,.73,1.92,1.33,4.29,1.33s4.29-.59,4.29-1.33v-4.02c1.98-1.36,3.27-3.64,3.27-6.22,0-4.17-3.38-7.56-7.56-7.56Z"/><line class="b" x1="8.93" y1="17.19" x2="9.93" y2="12.7"/><line class="b" x1="7.44" y1="10.07" x2="9.93" y2="12.57"/><line class="b" x1="10.77" y1="10.07" x2="7.44" y2="10.07"/><line class="c" x1="10.77" y1="8.3" x2="10.77" y2="3.54"/><line class="b" x1="12.31" y1="17.19" x2="11.31" y2="12.7"/><line class="b" x1="13.8" y1="10.07" x2="11.3" y2="12.57"/><line class="b" x1="10.46" y1="10.07" x2="13.8" y2="10.07"/><line class="c" x1="12.77" y1="8.3" x2="14.77" y2="5.54"/><line class="c" x1="8.77" y1="8.3" x2="6.77" y2="5.54"/></svg>